<?xml version="1.0" encoding="utf-8"?>
<!-- Generator: Adobe Illustrator 24.0.2, SVG Export Plug-In . SVG Version: 6.00 Build 0)  -->
<svg version="1.1" id="Capa_1" xmlns="http://www.w3.org/2000/svg" xmlns:xlink="http://www.w3.org/1999/xlink" x="0px" y="0px"
	 viewBox="0 0 2065.7 644.8" style="enable-background:new 0 0 2065.7 644.8;" xml:space="preserve">
<style type="text/css">
	.st0{clip-path:url(#SVGID_2_);}
	.st1{fill:none;stroke:#FEFAF4;stroke-width:33;stroke-miterlimit:10;}
	.st2{clip-path:url(#SVGID_2_);fill:none;stroke:#FEFAF4;stroke-width:33;stroke-miterlimit:10;}
	.st3{fill:#FEFAF4;}
</style>
<g>
	<defs>
		<circle id="SVGID_1_" cx="369" cy="328.3" r="272.9"/>
	</defs>
	<clipPath id="SVGID_2_">
		<use xlink:href="#SVGID_1_"  style="overflow:visible;"/>
	</clipPath>
	<g class="st0">
		<path class="st1" d="M639.9,286.5c0,0-43.7-71.3-120.1-53.3s-36.9-46.8-89.6-89.6c-25.9-21-144.3-94.4-249.5,156.9
			c-114,272.4-132.5,29.2-132.5,29.2"/>
	</g>
	<g class="st0">
		<path class="st1" d="M619.1,440.7l-23-24.2c-10-33.6-46-53.5-79.2-41.9c-4.6,1.6-9,3.8-13,6.5l0,0c-20.6,14.1-48.9,3.3-54.9-20.9
			l-19.3-77.9c-16.1-40.3-67.1-52.8-99.9-24.4c-42.2,36.6-90.1,94.5-104.3,176.3c-26.9,155,0,93.2-74.1,160.6"/>
	</g>
	<path class="st2" d="M602.5,534"/>
	<g class="st0">
		<path class="st1" d="M602.5,534c0,0-49.8,45.6-68.4,19.9s-48.6-105.8-95.6-95.8c-47,10-62.7-32.8-62.7-32.8S346,362.7,323.2,441
			s39.9,102.9,61.7,99c21.2-3.8,81.2,16.8,121.1,66.6s63.8,42.7,83.7,21.4"/>
	</g>
	<use xlink:href="#SVGID_1_"  style="overflow:visible;fill:none;stroke:#FEFAF4;stroke-width:33;stroke-miterlimit:10;"/>
</g>
<g>
	<path class="st3" d="M985.9,386.2v44.4c-10.1,6-21.4,10.5-34,13.5s-26.2,4.5-40.8,4.5c-34.5,0-62.2-10.9-83.3-32.8
		c-21.1-21.9-31.6-50.6-31.6-86.2c0-35.8,10.9-65,32.7-87.7c21.8-22.7,49.7-34,83.6-34c12.4,0,24.4,1.3,36.2,3.9
		c11.8,2.6,22.9,6.4,33.3,11.5v41c-9.8-6.3-19.8-11.2-30.2-14.5c-10.4-3.3-21-5-31.7-5c-25,0-45.1,7.8-60.2,23.5
		c-15.1,15.7-22.7,36.5-22.7,62.5c0,22.9,7.6,42.1,22.8,57.5c15.2,15.4,34.3,23.2,57.2,23.2c11.5,0,22.8-2,33.9-6.1
		C962.1,401.4,973.7,395,985.9,386.2z"/>
	<path class="st3" d="M1074.9,216v109.7c0,32,4.8,54.4,14.3,67.2c9.5,12.8,25.6,19.1,48.2,19.1c22.6,0,38.6-6.3,47.9-18.9
		c9.3-12.6,14-35.1,14-67.4V216h39v130.2c0,33.6-8.6,59.1-25.8,76.4c-17.2,17.3-42.6,26-76.1,26c-33.2,0-58.4-8.7-75.6-26.1
		c-17.2-17.4-25.8-42.8-25.8-76.3V216H1074.9z"/>
	<path class="st3" d="M1483.3,386.2v44.4c-10.1,6-21.4,10.5-34,13.5s-26.2,4.5-40.8,4.5c-34.5,0-62.2-10.9-83.3-32.8
		c-21.1-21.9-31.6-50.6-31.6-86.2c0-35.8,10.9-65,32.7-87.7c21.8-22.7,49.7-34,83.6-34c12.4,0,24.4,1.3,36.2,3.9
		c11.8,2.6,22.9,6.4,33.3,11.5v41c-9.8-6.3-19.8-11.2-30.2-14.5c-10.4-3.3-21-5-31.7-5c-25,0-45.1,7.8-60.2,23.5
		c-15.1,15.7-22.7,36.5-22.7,62.5c0,22.9,7.6,42.1,22.8,57.5c15.2,15.4,34.3,23.2,57.2,23.2c11.5,0,22.8-2,33.9-6.1
		C1459.5,401.4,1471.2,395,1483.3,386.2z"/>
	<path class="st3" d="M1744.2,216v223.1h-37.1v-40.5c-8.9,16.3-20.4,28.7-34.3,37.2c-13.9,8.5-29.5,12.8-46.7,12.8
		c-32,0-57.8-11-77.4-33c-19.6-22-29.4-51.2-29.4-87.4c0-36.7,9.5-66,28.5-87.7c19-21.7,44.5-32.6,76.3-32.6
		c18.7,0,34.9,4.2,48.6,12.6c13.7,8.4,24.8,20.8,33.3,37.4V216H1744.2z M1707.2,329.7c0-25.2-6.9-45.5-20.6-60.8
		c-13.7-15.4-31.7-23-53.8-23c-22.9,0-40.8,7.1-53.6,21.2c-12.8,14.1-19.3,33.9-19.3,59.3c0,27,6.5,47.8,19.4,62.4
		c12.9,14.6,31.2,21.9,55,21.9c22.8,0,40.6-7.1,53.5-21.3C1700.7,375.1,1707.2,355.2,1707.2,329.7z"/>
	<path class="st3" d="M1802.5,328.2c0-16.4,3-31.9,9-46.4c6-14.5,14.8-27.5,26.3-38.9c11.5-11.4,24.6-20,39.3-26
		c14.6-5.9,30.2-8.9,46.8-8.9c16.3,0,31.7,3,46.2,9c14.5,6,27.8,14.8,39.6,26.3c11.5,11.2,20.3,24.1,26.3,38.7c6,14.5,9,30,9,46.2
		c0,16.3-3,31.6-9,46c-6,14.4-14.8,27.2-26.3,38.4c-11.9,11.7-25.2,20.6-39.9,26.8c-14.7,6.2-30,9.3-46,9.3c-16.4,0-32-3.1-46.7-9.1
		c-14.7-6.1-27.8-14.8-39.4-26.2c-11.5-11.7-20.3-24.7-26.3-39C1805.5,360,1802.5,344.6,1802.5,328.2z M1843,328.2
		c0,23.6,7.9,43.5,23.7,59.9c15.8,16.3,34.9,24.5,57.3,24.5c22.3,0,41.2-8.2,56.8-24.5c15.6-16.3,23.4-36.3,23.4-59.9
		c0-23.6-7.8-43.5-23.4-59.9c-15.6-16.3-34.5-24.5-56.8-24.5c-22.6,0-41.7,8.2-57.4,24.5C1850.8,284.7,1843,304.6,1843,328.2z"/>
</g>
</svg>
